<?xml version="1.0" encoding="utf-8"?>
<!-- Generator: Adobe Illustrator 15.1.0, SVG Export Plug-In  -->
<!DOCTYPE svg PUBLIC "-//W3C//DTD SVG 1.1//EN" "http://www.w3.org/Graphics/SVG/1.1/DTD/svg11.dtd" [
	<!ENTITY ns_flows "http://ns.adobe.com/Flows/1.0/">
]>
<svg version="1.1"
	 xmlns="http://www.w3.org/2000/svg" xmlns:xlink="http://www.w3.org/1999/xlink" xmlns:a="http://ns.adobe.com/AdobeSVGViewerExtensions/3.0/"
	 x="0px" y="0px" width="257px" height="175px" viewBox="-4.675 -9.579 257 175" enable-background="new -4.675 -9.579 257 175"
	 xml:space="preserve">
<defs>
</defs>
<g>
	<g>
		<path d="M22.768,154.476c-0.367-24.627,6.103-48.652,13.483-71.949c7.756-24.482,17.204-48.416,24.25-73.125
			c-4.568,0.605-9.136,1.211-13.705,1.817C57.75,30.265,70.541,48.274,79.69,68.317c4.803,10.521,9.982,20.665,15.687,30.734
			c5.596,9.878,11.348,19.776,15.645,30.311c2.433-3.148,4.866-6.295,7.299-9.443c-19.039-1.287-33.871-17.529-50.666-24.941
			c-9.329-4.117-19.046-7.702-28.626-11.19c-10.168-3.703-20.82-6.688-31.708-6.868c0.629,4.916,1.258,9.831,1.887,14.746
			c12.26-4.299,25.207-5.17,38.087-5.726c12.786-0.552,25.462-1.149,38.211-2.226c22.615-1.908,47.896,2.525,68.541-9.193
			c13.803-7.836,19.681-27.537,18.596-42.471c-0.602-8.279-3.608-16.289-10.507-21.289c-6.495-4.709-15.859-5.143-23.077-1.972
			c-8.822,3.876-11.936,14.042-13.136,22.778c-1.552,11.297-0.194,22.851,1.423,34.061c2.697,18.684,6.945,38.037,13.675,55.734
			c4.572-1.913,9.143-3.826,13.714-5.739c-2.287-5.396-2.714-11.69-3.597-17.423c-1.059-6.877-2.814-13.555-6.403-19.577
			c-3.407,3.431-6.813,6.862-10.22,10.293c36.237,17.617,72.106,36.145,106,58c8.146,5.253,15.607-7.763,7.5-12.99
			c-33.894-21.856-69.763-40.383-106-58c-6.492-3.156-14.272,3.493-10.22,10.293c6.587,11.052,4.998,25.198,10,37
			c3.29,7.761,16.71,2.138,13.714-5.739c-4.323-11.366-7.204-23.435-9.853-35.276c-3.492-15.613-6.539-32.055-5.027-48.11
			c0.191-2.031,0.771-4.862,1.728-7.646c0.708-2.062-0.62,1.251,0.272-0.646c0.263-0.56,0.578-1.093,0.894-1.624
			c0.178-0.301,1.382-1.794,0.216-0.373c0.274-0.334,2.114-1.967,0.505-0.718c0.437-0.339,0.92-0.612,1.4-0.884
			c1.63-0.92-1.59,0.514,0.225-0.078c0.339-0.109,2.24-0.441,0.342-0.201c0.985-0.125,1.978-0.135,2.969-0.137
			c2.888-0.006,4.251,0.812,6.072,2.848c0.843,0.942,1.78,3.723,2.322,6.713c0.375,2.067,0.231,6.879-0.227,9.693
			c-1.106,6.793-3.826,13.889-8.017,18.325c-2.14,2.265-6.085,4.056-10.253,5.349c-5.618,1.743-11.5,2.425-17.341,2.861
			c-12.022,0.898-24.101,0.265-36.123,1.135c-13.296,0.963-26.522,1.721-39.85,2.297c-13.57,0.586-27.536,1.645-40.439,6.17
			c-7.801,2.734-6.912,14.602,1.887,14.746c10.176,0.168,19.979,3.466,29.456,6.917c9.587,3.491,19.625,6.949,28.701,11.626
			c17.542,9.039,32.223,23.063,52.843,24.457c4.468,0.302,9.103-5.021,7.299-9.443c-8.736-21.414-22.343-40.297-31.459-61.5
			C84.872,42.628,71.276,23.691,59.736,3.623C56.46-2.073,47.793-0.739,46.031,5.44C32.102,54.286,6.991,102.485,7.764,154.366
			C7.909,164.043,22.912,164.142,22.768,154.476L22.768,154.476z"/>
	</g>
</g>
<g>
	<g>
		<path fill="#FFFFFF" d="M18.766,154.421C18.009,103.648,43.003,56.175,56.641,8.352c-2.132,0.278-4.265,0.558-6.397,0.836
			c10.953,19.046,23.744,37.056,32.894,57.099c9.65,21.139,22.977,40.55,31.753,62.065c1.125-1.478,2.25-2.954,3.375-4.431
			C98.287,122.57,83.252,106.21,65.671,98.45c-9.02-3.98-18.43-7.431-27.692-10.803c-9.857-3.59-20.155-6.553-30.713-6.727
			c0.31,2.292,0.62,4.583,0.931,6.875c12.573-4.409,25.941-5.288,39.152-5.858c12.786-0.552,25.462-1.149,38.211-2.226
			c21.784-1.838,46.572,2.647,66.456-8.639c12.636-7.173,17.61-25.522,16.625-39.077c-0.485-6.674-2.881-13.697-8.489-17.763
			c-5.271-3.821-13.096-4.618-19.062-1.997c-7.433,3.266-10.132,11.843-11.149,19.248c-1.51,10.996-0.301,22.214,1.275,33.133
			c2.696,18.685,6.945,38.038,13.675,55.734c2.132-0.899,4.265-1.798,6.397-2.697c-5.069-11.959-3.172-25.543-10-37
			c-1.596,1.597-3.192,3.192-4.789,4.789c36.237,17.617,72.106,36.144,106,58c3.806,2.454,7.312-3.607,3.533-6.045
			c-33.894-21.855-69.764-40.383-106-58c-3.023-1.47-6.692,1.595-4.789,4.789c6.686,11.219,4.968,25.128,10,37
			c1.542,3.64,7.803,1,6.397-2.697c-4.323-11.366-7.204-23.435-9.853-35.276c-3.564-15.938-6.702-32.787-5.16-49.175
			c0.486-5.161,1.742-11.09,5.856-14.608c4.358-3.728,12.167-1.457,15.568,2.346c4.567,5.105,4.169,14.076,3.154,20.313
			c-1.17,7.19-3.952,14.712-9.019,20.076c-7.214,7.636-20.731,8.681-30.506,9.411c-12.022,0.898-24.101,0.265-36.123,1.135
			c-13.295,0.963-26.522,1.721-39.85,2.297c-13.237,0.571-26.787,1.623-39.375,6.037c-3.665,1.285-3.15,6.808,0.931,6.875
			c10.52,0.174,20.652,3.49,30.452,7.059c9.896,3.604,20.269,7.187,29.635,12.014c16.813,8.663,31.162,22.593,50.914,23.928
			c2.101,0.142,4.211-2.38,3.375-4.431c-8.592-21.063-22.067-39.616-31.037-60.48C81.425,44.659,67.829,25.723,56.288,5.654
			c-1.525-2.653-5.573-2.054-6.397,0.836c-13.829,48.493-38.893,96.432-38.125,147.931
			C11.833,158.931,18.833,158.938,18.766,154.421L18.766,154.421z"/>
	</g>
</g>
</svg>
